<svg id="visual" viewBox="0 0 900 600" width="900" height="600" xmlns="http://www.w3.org/2000/svg" xmlns:xlink="http://www.w3.org/1999/xlink" version="1.1"><rect x="0" y="0" width="900" height="600" fill="#002233"></rect><path d="M0 375L21.5 392.2C43 409.3 86 443.7 128.8 456.5C171.7 469.3 214.3 460.7 257.2 462C300 463.3 343 474.7 385.8 484.5C428.7 494.3 471.3 502.7 514.2 506.2C557 509.7 600 508.3 642.8 503.8C685.7 499.3 728.3 491.7 771.2 477.2C814 462.7 857 441.3 878.5 430.7L900 420L900 601L878.5 601C857 601 814 601 771.2 601C728.3 601 685.7 601 642.8 601C600 601 557 601 514.2 601C471.3 601 428.7 601 385.8 601C343 601 300 601 257.2 601C214.3 601 171.7 601 128.8 601C86 601 43 601 21.5 601L0 601Z" fill="#0066FF" stroke-linecap="round" stroke-linejoin="miter"></path></svg>